<?xml version="1.0" encoding="utf-8"?>
<svg xmlns="http://www.w3.org/2000/svg" version="1.1" width="300" height="300" style="background: whitesmoke;">
  <title>Cable</title>
  <desc>Cable catalog</desc>
  <defs>
    <g id="Cable">
      <style type="text/css">
        <![CDATA[
          .cable { fill: transparent; stroke: red; stroke-width: 5; }
          .cable-data { stroke: green; }
        ]]>
      </style>
      <g id="simple">
        <path id="cable-simple-13" class="cable" d="M 30 00 L 30 60" />
        <path id="cable-simple-24" class="cable" d="M 00 30 L 60 30" />

        <path id="cable-simple-12" class="cable" d="M 30 00 Q 30 30 60 30"/>
        <path id="cable-simple-23" class="cable" d="M 60 30 Q 30 30 30 60"/>
        <path id="cable-simple-34" class="cable" d="M 30 60 Q 30 30 00 30"/>
        <path id="cable-simple-14" class="cable" d="M 00 30 Q 30 30 30 00"/>

        
        <path id="cable-simple-123" class="cable" d="M 30 00 L 30 60 Q 30 30 60 30 Q 30 30 30 00"/>
        <path id="cable-simple-234" class="cable" d="M 60 30 L 00 30 Q 30 30 30 60 Q 30 30 60 30"/>
        <path id="cable-simple-134" class="cable" d="M 30 60 L 30 00 Q 30 30 00 30 Q 30 30 30 60"/>
        <path id="cable-simple-124" class="cable" d="M 00 30 L 60 30 Q 30 30 30 00 Q 30 30 00 30"/>

        <path id="cable-simple-1234" class="cable" d="M 00 30 L 60 30 Q 30 30 30 00 Q 30 30 00 30 Q 30 30 30 60 Q 30 30 60 30"/>
      </g>
    </g>
    <g id="Pipe">
      <style type="text/css">
        <![CDATA[
          .pipe { fill: yellow; }
        ]]>
      </style>
      <g id="simple">
        <path id="pipe-simple-13" class="pipe" d="M 20 00 L 20 60 L 40 60 L 40 00 Z" />
        <path id="pipe-simple-24" class="pipe" d="M 00 20 L 60 20 L 60 40 L 00 40 Z" />

        <path id="pipe-simple-12" class="pipe" d="M 20 00 Q 20 40 60 40 L 60 20 Q 40 20 40 00 Z"/>
        <path id="pipe-simple-23" class="pipe" d="M 60 20 Q 20 20 20 60 L 40 60 Q 40 40 60 40 Z"/>
        <path id="pipe-simple-34" class="pipe" d="M 40 60 Q 40 20 00 20 L 00 40 Q 20 40 20 60 Z"/>
        <path id="pipe-simple-14" class="pipe" d="M 00 40 Q 40 40 40 00 L 20 00 Q 20 20 00 20 Z"/>

        <path id="pipe-simple-123" class="pipe" d="M 20 00 L 20 60 L 40 60 L 40 40 L 60 40 L 60 20 L 40 20 L 40 00 Z"/>
        <path id="pipe-simple-234" class="pipe" d="M 00 20 L 60 20 L 60 40 L 40 40 L 40 60 L 20 60 L 20 40 L 00 40 Z"/>
        <path id="pipe-simple-134" class="pipe" d="M 40 00 L 40 60 L 20 60 L 20 40 L 00 40 L 00 20 L 20 20 L 20 00 Z"/>
        <path id="pipe-simple-124" class="pipe" d="M 00 40 L 60 40 L 60 20 L 40 20 L 40 00 L 20 00 L 20 20 L 00 20 Z"/>

        <path id="pipe-simple-1234" class="pipe" d="M 20 00 L 20 20 L 00 20 L 00 40 L 20 40 L 20 60 L 40 60 L 40 40 L 60 40 L 60 20 L 40 20 L 40 00 Z"/>
      </g>
    </g>
  </defs>

  <!-- Grid start -->
  <line x1="0" y1="30" x2="780" y2="30" stroke="grey"/>
  <line x1="0" y1="270" x2="780" y2="270" stroke="grey"/>
  <line x1="0" y1="510" x2="780" y2="510" stroke="grey"/>
  <line x1="0" y1="750" x2="780" y2="750" stroke="grey"/>

  <line x1="30" y1="0" x2="30" y2="780" stroke="grey"/>
  <line x1="270" y1="0" x2="270" y2="780" stroke="grey"/>
  <line x1="510" y1="0" x2="510" y2="780" stroke="grey"/>
  <line x1="750" y1="0" x2="750" y2="780" stroke="grey"/>
  <!-- Grid end -->

  <use href="#cable-simple-12" x="60" y="60" />
  <use href="#cable-simple-234" x="180" y="60" />
  <use href="#pipe-simple-34" x="60" y="180" />
  <use href="#pipe-simple-124" x="180" y="180" />

  <g id="label" font-size="10">
    <g class="cell" fill="grey">
      <text x="35" y="40">A block</text>
    </g>
    <g class="element-label">
      <text x="55" y="50">Cable from 1 to 2</text>
      <text x="165" y="50">Cable from 2 to 3 to 4</text>
      <text x="55" y="170">Pipe from 3 to 4</text>
      <text x="165" y="170">Pipe from 1 to 2 to 4</text>
    </g>
    <g id="position">
      <!-- Cable 1 to 2 start -->
      <text x="88" y="58">1</text>
      <text x="122" y="93">2</text>
      <g fill="grey">
        <text x="88" y="131">3</text>
        <text x="53" y="93">4</text>
      </g>
      <!-- Cable 1 to 2 end -->

      <!-- Cable 2 to 3 to 4 start -->
      <text x="242" y="93">2</text>
      <text x="208" y="131">3</text>
      <text x="173" y="93">4</text>
      <g fill="grey">
        <text x="208" y="58">1</text>
      </g>
      <!-- Cable 2 to 3 to 4 end -->

      <!-- Pipe 3 to 4 start -->
      <text x="88" y="251">3</text>
      <text x="53" y="213">4</text>
      <g fill="grey">
        <text x="88" y="178">1</text>
        <text x="122" y="213">2</text>
      </g>
      <!-- Pipe 3 to 4 end -->

      <!-- Pipe 1 to 2 to 4 start -->
      <text x="208" y="178">1</text>
      <text x="242" y="213">2</text>
      <text x="173" y="213">4</text>
      <g fill="grey">
        <text x="208" y="251">3</text>
      </g>
      <!-- Pipe 1 to 2 to 4 end -->
    </g>
  </g>
</svg>
